<svg  viewBox="0 0 511 511.99957" xmlns="http://www.w3.org/2000/svg"><path d="m238.46875 417.851562c5.628906.171876 11.347656.171876 17.0625.171876s11.429688 0 17.0625-.171876c103.992188-1.28125 191.09375-15.101562 224.367188-33.953124 1.800781-1.027344 3.539062-2.167969 5.203124-3.414063l-84.542968-371.953125h-324.179688l-84.542968 371.953125c1.660156 1.246094 3.398437 2.386719 5.203124 3.414063 33.273438 18.851562 120.375 32.671874 224.367188 33.953124zm17.0625-383.726562c72.597656 0 135.132812-8.191406 163.285156-20.132812-28.152344 11.941406-90.6875 20.132812-163.285156 20.132812s-135.132812-8.191406-163.285156-20.132812c28.152344 11.941406 90.6875 20.132812 163.285156 20.132812zm0 0" fill="#00d7df"/><path d="m238.46875 417.851562v51.355469h34.125v-51.355469c-5.632812.171876-11.347656.171876-17.0625.171876s-11.433594 0-17.0625-.171876zm0 0" fill="#ffe477"/><path d="m187.28125 469.207031c-9.421875 0-17.0625 7.640625-17.0625 17.0625 0 9.425781 7.640625 17.0625 17.0625 17.0625h136.5c9.421875 0 17.058594-7.636719 17.058594-17.0625 0-9.421875-7.636719-17.0625-17.058594-17.0625zm0 0" fill="#603913"/><path d="m93.441406 477.738281c0 14.136719-11.457031 25.59375-25.59375 25.59375-14.132812 0-25.59375-11.457031-25.59375-25.59375 0-14.132812 11.460938-25.589843 25.59375-25.589843 14.136719 0 25.59375 11.457031 25.59375 25.589843zm0 0" fill="#ffe477"/><path d="m510.046875 383.316406c.222656-.5.394531-1.023437.511719-1.558594.078125-.640624.078125-1.289062 0-1.929687.03125-.410156.03125-.824219 0-1.234375l-84.542969-371.957031c-.890625-3.910157-4.382813-6.6718752-8.394531-6.636719h-324.179688c-3.980468 0-7.433594 2.753906-8.316406 6.636719l-84.542969 371.957031c-.03125.410156-.03125.824219 0 1.234375-.09375.640625-.105469 1.285156-.042969 1.929687.117188.535157.289063 1.058594.511719 1.558594.140625.519532.335938 1.023438.578125 1.503906.363282.535157.789063 1.027344 1.261719 1.464844.242187.335938.511719.648438.804687.941406l.195313.125.179687.121094c1.878907 1.390625 3.835938 2.675782 5.859376 3.847656 15.621093 7.890626 32.230468 13.644532 49.386718 17.105469v36.402344c-18.246094 4.710937-29.222656 23.324219-24.507812 41.570313 4.710937 18.246093 23.324218 29.222656 41.570312 24.507812 18.246094-4.710938 29.222656-23.320312 24.507813-41.570312-3.101563-12.019532-12.488281-21.40625-24.507813-24.507813v-32.777344c50.710938 8.929688 102.070313 13.667969 153.558594 14.160157v34.464843h-42.65625c-14.132812 0-25.589844 11.460938-25.589844 25.59375 0 14.136719 11.457032 25.59375 25.589844 25.59375h136.5c14.132812 0 25.59375-11.457031 25.59375-25.59375 0-14.132812-11.460938-25.59375-25.59375-25.59375h-42.65625v-34.464843c99.8125-1.902344 185.671875-15.414063 220.167969-34.976563 1.984375-1.144531 3.898437-2.40625 5.734375-3.777344l.179687-.113281.195313-.128906c.292968-.289063.5625-.601563.800781-.9375.476563-.4375.898437-.929688 1.265625-1.464844.242188-.476562.4375-.976562.578125-1.496094zm-425.136719 94.421875c0 9.425781-7.640625 17.0625-17.0625 17.0625s-17.0625-7.636719-17.0625-17.0625c0-9.421875 7.640625-17.058593 17.0625-17.058593s17.0625 7.636718 17.0625 17.058593zm288.417969-460.675781c-38.972656 5.996094-78.367187 8.847656-117.796875 8.53125-39.429688.316406-78.824219-2.535156-117.796875-8.53125zm-274.949219 8.25c32.929688 10.78125 91.464844 17.34375 157.152344 17.34375s124.21875-6.5625 157.152344-17.34375l79.847656 351.273438c-32.671875 18.402343-120.976562 31.515624-220.195312 32.734374-5.46875.171876-11.003907.171876-16.550782.171876-5.867187-.09375-11.429687 0-17.214844-.171876-99.136718-1.21875-187.589843-14.398437-220.039062-32.726562zm233.933594 460.957031c0 4.710938-3.820312 8.53125-8.53125 8.53125h-136.5c-4.710938 0-8.53125-3.820312-8.53125-8.53125 0-4.710937 3.820312-8.53125 8.53125-8.53125h136.5c4.710938 0 8.53125 3.820313 8.53125 8.53125zm-85.3125-25.59375v-34.207031c2.847656 0 5.671875.085938 8.53125.085938s5.671875-.070313 8.53125-.085938v34.207031zm0 0" fill="#231f20"/></svg>